<svg width="512" height="512" viewBox="0 0 512 512" fill="none" xmlns="http://www.w3.org/2000/svg">
<path d="M512 109.5C493.995 117.324 474.944 122.478 455.45 124.8C475.937 112.804 491.343 93.7458 498.78 71.2002C479.411 82.5261 458.256 90.4729 436.22 94.7002C426.941 84.9755 415.781 77.2392 403.419 71.9616C391.057 66.684 377.751 63.9753 364.31 64.0002C309.89 64.0002 265.85 107.4 265.85 160.9C265.811 168.342 266.664 175.761 268.39 183C229.367 181.171 191.155 171.216 156.2 153.773C121.244 136.329 90.3149 111.782 65.39 81.7002C56.6457 96.4414 52.0213 113.261 52 130.4C52 164 69.53 193.7 96 211.1C80.3173 210.728 64.9559 206.577 51.22 199V200.2C51.22 247.2 85.22 286.3 130.22 295.2C121.758 297.456 113.038 298.599 104.28 298.6C98.0658 298.611 91.8657 298.008 85.77 296.8C98.28 335.3 134.69 363.3 177.82 364.1C142.774 391.109 99.7462 405.708 55.5 405.6C47.6462 405.589 39.7997 405.121 32 404.2C77.0118 432.942 129.334 448.146 182.74 448C364.1 448 463.18 300.3 463.18 172.2C463.18 168 463.07 163.8 462.87 159.7C482.101 146.021 498.738 129.021 512 109.5Z" fill="white"/>
</svg>
