<svg width="28" height="28" viewBox="0 0 28 28" fill="none" xmlns="http://www.w3.org/2000/svg">
<path d="M14.0029 1.75C7.23809 1.75 1.75293 7.23516 1.75293 14C1.75293 19.0148 4.77168 23.3242 9.08652 25.2219C9.05371 24.3688 9.08106 23.3406 9.29981 22.4109C9.53496 21.4156 10.8748 15.7336 10.8748 15.7336C10.8748 15.7336 10.4811 14.9516 10.4811 13.7977C10.4811 11.982 11.5311 10.6258 12.8436 10.6258C13.9592 10.6258 14.4951 11.4625 14.4951 12.4633C14.4951 13.5844 13.7787 15.2578 13.4123 16.8109C13.1061 18.1125 14.0631 19.168 15.3482 19.168C17.667 19.168 19.2311 16.1875 19.2311 12.6547C19.2311 9.96953 17.4209 7.9625 14.1342 7.9625C10.4209 7.9625 8.10215 10.7352 8.10215 13.8305C8.10215 14.8969 8.41934 15.6516 8.91152 16.2312C9.13574 16.4992 9.16855 16.6086 9.08652 16.9148C9.02637 17.1391 8.89512 17.6805 8.83496 17.8992C8.75293 18.2109 8.50137 18.3203 8.22246 18.2055C6.51074 17.5055 5.7123 15.6352 5.7123 13.5242C5.7123 10.0461 8.64902 5.87344 14.4678 5.87344C19.1436 5.87344 22.2225 9.25859 22.2225 12.8898C22.2225 17.6969 19.5482 21.2844 15.6107 21.2844C14.2873 21.2844 13.0459 20.568 12.6193 19.7586C12.6193 19.7586 11.9084 22.5805 11.7553 23.1273C11.4982 24.0734 10.9896 25.0141 10.5248 25.7523C11.6524 26.085 12.8218 26.2544 13.9975 26.2555C20.7623 26.2555 26.2475 20.7703 26.2475 14.0055C26.2475 7.24063 20.7678 1.75 14.0029 1.75Z" fill="white"/>
</svg>
