<svg width="121" height="33" viewBox="0 0 121 33" fill="none" xmlns="http://www.w3.org/2000/svg">
<g clip-path="url(#clip0_202_157)">
<path d="M16.7153 7.93218C16.6473 7.84218 16.4093 7.67218 16.0013 7.42218C15.5933 7.17218 15.0833 6.91218 14.4713 6.64018C13.8593 6.36818 13.1903 6.13018 12.4653 5.92618C11.7575 5.72463 11.0252 5.62166 10.2893 5.62018C8.29427 5.62018 7.29727 6.28918 7.29727 7.62618C7.29727 8.03418 7.40427 8.37418 7.62027 8.64618C7.83527 8.91818 8.15227 9.16218 8.57227 9.37718C8.99127 9.59218 9.51827 9.79118 10.1523 9.97218L11.5583 10.3652L12.3633 10.5842C13.5193 10.9012 14.5613 11.2472 15.4913 11.6212C16.4203 11.9952 17.2083 12.4602 17.8543 13.0152C18.4987 13.5684 19.0101 14.2599 19.3503 15.0382C19.7003 15.8312 19.8773 16.7832 19.8773 17.8942C19.8773 19.2542 19.6223 20.4042 19.1123 21.3452C18.6023 22.2852 17.9273 23.0452 17.0893 23.6232C16.2493 24.2012 15.2873 24.6202 14.1993 24.8812C13.1113 25.1412 11.9893 25.2722 10.8333 25.2722C8.99149 25.2617 7.16028 24.9928 5.39327 24.4732C4.50927 24.2132 3.65327 23.9012 2.82627 23.5382C2.02423 23.1896 1.2557 22.7686 0.530273 22.2802L2.97827 17.4182C3.06827 17.5312 3.36327 17.7472 3.86227 18.0642C4.36027 18.3812 4.97827 18.6992 5.71527 19.0162C6.45127 19.3332 7.27327 19.6162 8.18027 19.8662C9.08627 20.1162 10.0043 20.2402 10.9343 20.2402C12.9063 20.2402 13.8923 19.6402 13.8923 18.4382C13.8923 17.9852 13.7443 17.6112 13.4503 17.3162C13.1553 17.0212 12.7473 16.7552 12.2263 16.5172C11.7375 16.2984 11.2351 16.1113 10.7223 15.9572L9.02027 15.4622L8.04427 15.1742C6.93327 14.8342 5.97027 14.4662 5.15427 14.0692C4.33827 13.6722 3.66427 13.2132 3.13127 12.6922C2.60816 12.1853 2.20203 11.5703 1.94127 10.8902C1.68027 10.2102 1.55027 9.41718 1.55027 8.51018C1.55027 7.24018 1.78827 6.11918 2.26427 5.14418C2.72317 4.19125 3.38457 3.35 4.20227 2.67918C5.04278 1.99738 6.00664 1.48371 7.04127 1.16618C8.11727 0.826176 9.25627 0.656176 10.4583 0.656176C11.2963 0.656176 12.1243 0.736176 12.9403 0.894176C13.7563 1.05318 14.5383 1.25718 15.2863 1.50618C16.0343 1.75618 16.7313 2.03918 17.3763 2.35618C18.0233 2.67318 18.6183 2.99118 19.1623 3.30818L16.7153 7.93218ZM40.1393 25.0002H34.6993V14.9702C34.6993 13.8142 34.4723 12.9642 34.0193 12.4202C33.5653 11.8762 32.9423 11.6042 32.1493 11.6042C31.8313 11.6042 31.4863 11.6782 31.1123 11.8252C30.7189 11.984 30.352 12.2018 30.0243 12.4712C29.6619 12.7654 29.3363 13.1022 29.0543 13.4742C28.7572 13.864 28.5274 14.3006 28.3743 14.7662V25.0002H22.9343V0.180176H28.3743V10.1422C29.005 9.10217 29.9037 8.2508 30.9763 7.67718C32.0523 7.09918 33.2363 6.81018 34.5293 6.81018C35.7303 6.81018 36.6993 7.02018 37.4363 7.43918C38.1723 7.85918 38.7393 8.39118 39.1363 9.03718C39.5323 9.68318 39.7993 10.4082 39.9353 11.2132C40.0713 12.0182 40.1393 12.8052 40.1393 13.5762V25.0002ZM52.4793 25.3402C50.9603 25.3402 49.6063 25.0902 48.4163 24.5922C47.2263 24.0932 46.2233 23.4192 45.4063 22.5692C44.5919 21.7212 43.9614 20.7141 43.5543 19.6112C43.134 18.4857 42.9205 17.2936 42.9243 16.0922C42.9243 14.8682 43.1343 13.6952 43.5543 12.5732C43.9617 11.4701 44.5925 10.4631 45.4073 9.61518C46.2233 8.76518 47.2263 8.08518 48.4163 7.57518C49.6063 7.06518 50.9603 6.81018 52.4793 6.81018C53.9983 6.81018 55.3463 7.06518 56.5253 7.57518C57.7043 8.08518 58.7013 8.76518 59.5173 9.61518C60.3333 10.4653 60.9694 11.4714 61.3873 12.5732C61.8181 13.6962 62.0372 14.8893 62.0333 16.0922C62.037 17.2936 61.8236 18.4857 61.4033 19.6112C60.9961 20.7141 60.3656 21.7212 59.5513 22.5692C58.7353 23.4192 57.7313 24.0932 56.5413 24.5922C55.3513 25.0912 53.9983 25.3402 52.4793 25.3402ZM48.5003 16.0922C48.5003 17.4972 48.8743 18.6252 49.6223 19.4752C50.3703 20.3252 51.3223 20.7502 52.4783 20.7502C53.0186 20.756 53.5532 20.6398 54.0423 20.4102C54.5183 20.1832 54.9323 19.8662 55.2823 19.4582C55.6502 19.0216 55.9331 18.5199 56.1163 17.9792C56.3251 17.3722 56.4286 16.734 56.4223 16.0922C56.4223 14.6872 56.0483 13.5592 55.3003 12.7092C54.5523 11.8592 53.6113 11.4342 52.4783 11.4342C51.9394 11.4298 51.406 11.5432 50.9155 11.7664C50.425 11.9895 49.9891 12.3171 49.6383 12.7262C49.271 13.1629 48.9888 13.6646 48.8063 14.2052C48.5975 14.8121 48.494 15.4503 48.5003 16.0922ZM76.2763 11.8082C74.9613 11.8312 73.7713 12.0462 72.7063 12.4542C71.6413 12.8622 70.8703 13.4742 70.3943 14.2902V25.0002H64.9543V7.15018H69.9523V10.7542C70.5643 9.55318 71.3523 8.61218 72.3153 7.93218C73.2783 7.25218 74.3043 6.90118 75.3923 6.87818H75.9363C76.0493 6.87818 76.1633 6.88918 76.2763 6.91218V11.8082ZM90.3503 24.0482C89.5139 24.3961 88.6565 24.6914 87.7833 24.9322C86.8203 25.2042 85.8513 25.3402 84.8763 25.3402C84.1963 25.3402 83.5563 25.2552 82.9563 25.0852C82.3776 24.9269 81.8387 24.6489 81.3743 24.2692C80.9213 23.8952 80.5643 23.4022 80.3043 22.7902C80.0423 22.1782 79.9123 21.4412 79.9123 20.5802V11.2642H77.6343V7.15018H79.9123V1.47218H85.3523V7.15018H88.9903V11.2642H85.3523V18.7102C85.3523 19.3002 85.4993 19.7242 85.7943 19.9852C86.0893 20.2452 86.4633 20.3762 86.9163 20.3762C87.3243 20.3762 87.7433 20.3082 88.1743 20.1722C88.6043 20.0362 88.9793 19.8892 89.2963 19.7302L90.3503 24.0482ZM92.6273 0.180176H98.0673V18.6422C98.0673 20.0022 98.6453 20.6822 99.8013 20.6822C100.073 20.6822 100.373 20.6422 100.702 20.5632C101.031 20.4832 101.332 20.3652 101.603 20.2062L102.317 24.2862C101.637 24.6032 100.855 24.8532 99.9713 25.0342C99.0873 25.2152 98.2603 25.3062 97.4893 25.3062C95.9253 25.3062 94.7243 24.8982 93.8853 24.0822C93.0463 23.2662 92.6273 22.0872 92.6273 20.5462V0.180176ZM104.083 27.6862C104.537 27.8452 104.962 27.9582 105.358 28.0262C105.712 28.0902 106.07 28.1243 106.429 28.1282C107.087 28.1282 107.597 27.9012 107.959 27.4482C108.322 26.9952 108.651 26.1782 108.945 25.0002L102.145 7.15018H107.755L111.903 20.3422L115.473 7.15018H120.573L113.773 27.8902C113.324 29.3256 112.431 30.5815 111.223 31.4772C109.999 32.3952 108.549 32.8542 106.871 32.8542C106.41 32.8535 105.949 32.8137 105.494 32.7352C105.013 32.651 104.54 32.5201 104.084 32.3442L104.083 27.6862Z" fill="white"/>
</g>
<defs>
<clipPath id="clip0_202_157">
<rect width="121" height="33" fill="white"/>
</clipPath>
</defs>
</svg>
