<svg width="28" height="28" viewBox="0 0 28 28" fill="none" xmlns="http://www.w3.org/2000/svg">
<path d="M27.125 5.98829C26.1403 6.41614 25.0985 6.69802 24.0324 6.82501C25.1528 6.16897 25.9953 5.12673 26.402 3.89376C25.3428 4.51315 24.1859 4.94774 22.9808 5.17892C22.4733 4.6471 21.863 4.22402 21.187 3.9354C20.511 3.64678 19.7833 3.49865 19.0482 3.50001C16.0721 3.50001 13.6637 5.87345 13.6637 8.79923C13.6616 9.20619 13.7082 9.61195 13.8026 10.0078C11.6685 9.90778 9.5788 9.36337 7.66718 8.40945C5.75555 7.45552 4.06409 6.11307 2.70102 4.46798C2.22281 5.27414 1.96992 6.19394 1.96875 7.13126C1.96875 8.96876 2.92742 10.593 4.375 11.5445C3.51735 11.5242 2.67728 11.2972 1.92609 10.8828V10.9484C1.92609 13.5188 3.78547 15.657 6.24641 16.1438C5.78363 16.2671 5.30675 16.3296 4.82781 16.3297C4.48797 16.3303 4.14891 16.2973 3.81555 16.2313C4.49969 18.3367 6.49086 19.868 8.84953 19.9117C6.93294 21.3888 4.57987 22.1871 2.16016 22.1813C1.73065 22.1806 1.30154 22.1551 0.875 22.1047C3.33658 23.6765 6.19798 24.508 9.11859 24.5C19.0367 24.5 24.4552 16.4227 24.4552 9.4172C24.4552 9.18751 24.4491 8.95782 24.4382 8.7336C25.4899 7.98551 26.3997 7.05585 27.125 5.98829Z" fill="white"/>
</svg>
